<svg xmlns="http://www.w3.org/2000/svg" width="1024.4" height="171.37" viewBox="0 0 1024.4 171.37">
  <g style="isolation: isolate">
    <g id="a5fe4296-0534-49dd-bbab-c8b07a62ca50" data-name="Layer 1">
      <g>
        <g style="mix-blend-mode: multiply;opacity: 0.75">
          <g>
            <path d="M244.94,322.11,247,337.26q-19.06,5.28-46.37,5.28-34.21,0-48.21-18.36t-14-63.59q0-45.22,14-63.59t48.21-18.37q24.56,0,43.15,4.59l-2.06,15.38q-20.67-2.06-41.09-2.06-23.19,0-32,13.89t-8.84,50.16q0,36.27,8.84,50.16t32,13.89Q227.27,324.64,244.94,322.11Z" transform="translate(-133.42 -173.63)" style="fill: #9300c9"/>
            <path d="M273.87,244.75,272,230.28q30.77-5,54-5.05,19.5,0,28.92,8.15t9.42,27.67v78.74H348.93l-2.29-18.37a79.46,79.46,0,0,1-20.09,14.23,56,56,0,0,1-26.05,6.2q-15.39,0-24.45-8.15T267,310.63V298.46q0-13.08,8.15-20.31T298,270.92h46.6v-9.87q0-10.56-4.82-14.93t-17.9-4.36Q305.32,241.76,273.87,244.75ZM287,301.22v7.12q0,8.71,4.13,12.74t13.32,4q8.72.24,19.86-4.13a66.19,66.19,0,0,0,20.31-12.62v-22.5H301.41q-7.8.23-11.13,4.13C288.06,292.58,287,296.32,287,301.22Z" transform="translate(-133.42 -173.63)" style="fill: #9300c9"/>
            <path d="M450.17,294.56,418,287.22q-13.77-3.23-19.51-10.33T392.78,256q0-18.6,9.76-24.91t33.86-5.86a369.71,369.71,0,0,1,47.06,3.45l-1.61,14.23q-34.89-1.14-42.47-1.15-17-.22-22.26,2.07T411.83,256c0,5.35,1.19,9,3.56,11s6.62,3.68,12.74,5.05l32.6,7.35q13.78,3.45,19.86,10.22t6.08,20.54q0,19.51-10.79,25.83t-37,6.31a282.69,282.69,0,0,1-43.84-3.21l1.37-14.23Q416,326,435,325.78q19.51,0,26.17-3t6.66-12.63q0-7.57-4-10.44T450.17,294.56Z" transform="translate(-133.42 -173.63)" style="fill: #9300c9"/>
            <path d="M583.09,293.41H531q1.6,19.29,9.41,25.95T566.33,326a281.6,281.6,0,0,0,38.8-2.75l2.07,13.08q-14.93,6.21-43.39,6.2-28.93,0-41.21-13.43t-12.28-45.57q0-32.37,11.94-45.34t39.48-13q25,0,36.5,9.07t11.48,27.43Q610.18,293.41,583.09,293.41Zm-52.34-15.15H578q12.16,0,12.17-16.53-.24-10.79-6.43-15.38t-21.12-4.59q-17.68,0-24.56,7.69T530.75,278.26Z" transform="translate(-133.42 -173.63)" style="fill: #9300c9"/>
            <path d="M644.15,312.7h6.43q4.14,0,5.74,1.61t1.61,5.73v12.4q0,4.14-1.61,5.74t-5.74,1.61h-6.43q-3.9,0-5.62-1.61t-1.72-5.74V320q0-4.12,1.72-5.73T644.15,312.7Z" transform="translate(-133.42 -173.63)" style="fill: #9300c9"/>
            <path d="M815.64,181.39V331.75q0,8-7.81,8H788.09q-6.2,0-9-6.43L725.65,221.1q-7.81-17-9-20.89H713q.91,9.18.92,20.89V339.79h-20.2V189.42q0-8,8-8h19.06q6.2,0,8.95,6.42l51.88,109.51q5.73,11.25,10.79,22.95h3.9q-.69-12.39-.68-24.1V181.39Z" transform="translate(-133.42 -173.63)" style="fill: #9300c9"/>
            <path d="M951.77,323l.92,15.61q-21.13,1.38-68,1.38-14,0-22.15-7.46t-8.38-20.09V208.7q.22-12.62,8.38-20.08t22.15-7.46q46.85,0,68,1.37l-.92,15.84H888.18q-13.78,0-13.78,15.16V248h68.41v16.3H874.4v43.39q0,15.38,13.78,15.38Z" transform="translate(-133.42 -173.63)" style="fill: #9300c9"/>
            <path d="M1092,199.29h-51.19v140.5h-20.2V199.29h-51v-17.9H1092Z" transform="translate(-133.42 -173.63)" style="fill: #9300c9"/>
          </g>
        </g>
        <g>
          <path d="M239.94,317.11,242,332.26q-19.06,5.28-46.37,5.28-34.21,0-48.21-18.36t-14-63.59q0-45.22,14-63.59t48.21-18.37q24.56,0,43.15,4.59l-2.06,15.38q-20.67-2.06-41.09-2.06-23.19,0-32,13.89t-8.84,50.16q0,36.27,8.84,50.16t32,13.89Q222.27,319.64,239.94,317.11Z" transform="translate(-133.42 -173.63)"/>
          <path d="M268.87,239.75,267,225.28q30.77-5,54-5.05,19.5,0,28.92,8.15t9.42,27.67v78.74H343.93l-2.29-18.37a79.46,79.46,0,0,1-20.09,14.23,56,56,0,0,1-26.05,6.2q-15.39,0-24.45-8.15T262,305.63V293.46q0-13.08,8.15-20.31T293,265.92h46.6v-9.87q0-10.56-4.82-14.93t-17.9-4.36Q300.32,236.76,268.87,239.75ZM282,296.22v7.12q0,8.71,4.13,12.74t13.32,4q8.72.24,19.86-4.13a66.19,66.19,0,0,0,20.31-12.62v-22.5H296.41q-7.8.23-11.13,4.13C283.06,287.58,282,291.32,282,296.22Z" transform="translate(-133.42 -173.63)"/>
          <path d="M445.17,289.56,413,282.22q-13.77-3.23-19.51-10.33T387.78,251q0-18.6,9.76-24.91t33.86-5.86a369.71,369.71,0,0,1,47.06,3.45l-1.61,14.23q-34.89-1.14-42.47-1.15-17-.22-22.26,2.07T406.83,251c0,5.35,1.19,9,3.56,11s6.62,3.68,12.74,5.05l32.6,7.35q13.78,3.45,19.86,10.22t6.08,20.54q0,19.51-10.79,25.83t-37,6.31a282.69,282.69,0,0,1-43.84-3.21l1.37-14.23Q411,321,430,320.78q19.51,0,26.17-3t6.66-12.63q0-7.57-4-10.44T445.17,289.56Z" transform="translate(-133.42 -173.63)"/>
          <path d="M578.09,288.41H526q1.6,19.29,9.41,25.95T561.33,321a281.6,281.6,0,0,0,38.8-2.75l2.07,13.08q-14.93,6.21-43.39,6.2-28.93,0-41.21-13.43t-12.28-45.57q0-32.37,11.94-45.34t39.48-13q25,0,36.5,9.07t11.48,27.43Q605.18,288.41,578.09,288.41Zm-52.34-15.15H573q12.16,0,12.17-16.53-.24-10.79-6.43-15.38t-21.12-4.59q-17.68,0-24.56,7.69T525.75,273.26Z" transform="translate(-133.42 -173.63)"/>
          <path d="M639.15,307.7h6.43q4.14,0,5.74,1.61t1.61,5.73v12.4q0,4.14-1.61,5.74t-5.74,1.61h-6.43q-3.9,0-5.62-1.61t-1.72-5.74V315q0-4.12,1.72-5.73T639.15,307.7Z" transform="translate(-133.42 -173.63)"/>
          <path d="M810.64,176.39V326.75q0,8-7.81,8H783.09q-6.2,0-9-6.43L720.65,216.1q-7.81-17-9-20.89H708q.91,9.18.92,20.89V334.79h-20.2V184.42q0-8,8-8h19.06q6.2,0,8.95,6.42l51.88,109.51q5.73,11.25,10.79,22.95h3.9q-.69-12.39-.68-24.1V176.39Z" transform="translate(-133.42 -173.63)"/>
          <path d="M946.77,318l.92,15.61q-21.13,1.38-68,1.38-14,0-22.15-7.46t-8.38-20.09V203.7q.22-12.62,8.38-20.08t22.15-7.46q46.85,0,68,1.37l-.92,15.84H883.18q-13.78,0-13.78,15.16V243h68.41v16.3H869.4v43.39q0,15.38,13.78,15.38Z" transform="translate(-133.42 -173.63)"/>
          <path d="M1087,194.29h-51.19v140.5h-20.2V194.29h-51v-17.9H1087Z" transform="translate(-133.42 -173.63)"/>
        </g>
      </g>
      <g>
        <g style="mix-blend-mode: multiply;opacity: 0.75">
          <polyline points="972.58 60.37 999.58 9.37 1024.4 60.37" style="fill: #9300c9"/>
        </g>
        <polyline points="967.58 55.37 994.58 4.37 1019.4 55.37"/>
      </g>
      <g>
        <g style="mix-blend-mode: multiply;opacity: 0.75">
          <polyline points="972.58 120.37 999.58 171.37 1024.4 120.37" style="fill: #9300c9"/>
        </g>
        <polyline points="967.58 115.37 994.58 166.37 1019.4 115.37"/>
      </g>
      <g>
        <g style="mix-blend-mode: multiply;opacity: 0.75">
          <rect x="998.58" y="60.37" width="12" height="60" style="fill: #9300c9"/>
        </g>
        <rect x="993.58" y="55.37" width="12" height="60"/>
      </g>
      <g>
        <g style="mix-blend-mode: multiply;opacity: 0.75">
          <rect x="986.58" y="60.37" width="12" height="60" style="fill: #9300c9"/>
        </g>
        <rect x="981.58" y="55.37" width="12" height="60"/>
      </g>
    </g>
  </g>
</svg>
